<svg xmlns="http://www.w3.org/2000/svg" xmlns:xlink="http://www.w3.org/1999/xlink" width="2000" zoomAndPan="magnify" viewBox="0 0 1500 1499.999933" height="2000" preserveAspectRatio="xMidYMid meet" version="1.0"><defs><g/></defs><g fill="#ffffff" fill-opacity="1"><g transform="translate(238.001966, 815.62491)"><g><path d="M 60.078125 -4.59375 C 60.078125 -3.15625 59.566406 -1.910156 58.546875 -0.859375 C 57.523438 0.179688 56.269531 0.703125 54.78125 0.703125 C 53.34375 0.703125 52.101562 0.179688 51.0625 -0.859375 C 50.019531 -1.910156 49.5 -3.15625 49.5 -4.59375 L 49.5 -124.0625 L 8.765625 -124.0625 C 7.472656 -124.0625 6.347656 -124.535156 5.390625 -125.484375 C 4.441406 -126.429688 3.96875 -127.554688 3.96875 -128.859375 C 3.96875 -130.203125 4.441406 -131.335938 5.390625 -132.265625 C 6.347656 -133.203125 7.472656 -133.671875 8.765625 -133.671875 L 100.53125 -133.671875 C 101.875 -133.671875 103.007812 -133.203125 103.9375 -132.265625 C 104.863281 -131.335938 105.328125 -130.203125 105.328125 -128.859375 C 105.328125 -127.554688 104.863281 -126.429688 103.9375 -125.484375 C 103.007812 -124.535156 101.875 -124.0625 100.53125 -124.0625 L 60.078125 -124.0625 Z M 60.078125 -4.59375 "/></g></g></g><g fill="#ffffff" fill-opacity="1"><g transform="translate(319.450488, 815.62491)"><g><path d="M 39.328125 -57.296875 C 36.585938 -57.296875 34.148438 -56.457031 32.015625 -54.78125 C 29.890625 -53.113281 28.207031 -50.722656 26.96875 -47.609375 C 25.738281 -44.503906 25.125 -40.863281 25.125 -36.6875 C 25.125 -30.332031 26.472656 -24.859375 29.171875 -20.265625 C 33.253906 -22.535156 36.816406 -25.15625 39.859375 -28.125 C 42.898438 -31.09375 45.253906 -34.1875 46.921875 -37.40625 C 48.585938 -40.632812 49.421875 -43.738281 49.421875 -46.71875 C 49.421875 -49.96875 48.503906 -52.539062 46.671875 -54.4375 C 44.835938 -56.34375 42.390625 -57.296875 39.328125 -57.296875 Z M 48.25 -9.265625 C 55.851562 -9.265625 62.5 -11.847656 68.1875 -17.015625 C 73.875 -22.191406 78.804688 -30.070312 82.984375 -40.65625 C 83.359375 -41.632812 83.972656 -42.410156 84.828125 -42.984375 C 85.679688 -43.566406 86.617188 -43.859375 87.640625 -43.859375 C 89.035156 -43.859375 90.21875 -43.367188 91.1875 -42.390625 C 92.164062 -41.421875 92.65625 -40.238281 92.65625 -38.84375 C 92.65625 -38.238281 92.539062 -37.632812 92.3125 -37.03125 C 82.382812 -11.832031 67.695312 0.765625 48.25 0.765625 C 44.070312 0.765625 40.160156 0.0898438 36.515625 -1.25 C 32.867188 -2.59375 29.609375 -4.539062 26.734375 -7.09375 C 23.578125 -5.382812 20.210938 -3.9375 16.640625 -2.75 C 13.066406 -1.5625 9.722656 -0.664062 6.609375 -0.0625 C 6.421875 -0.0195312 6.117188 0 5.703125 0 C 4.359375 0 3.1875 -0.472656 2.1875 -1.421875 C 1.195312 -2.378906 0.703125 -3.578125 0.703125 -5.015625 C 0.703125 -6.222656 1.09375 -7.289062 1.875 -8.21875 C 2.664062 -9.144531 3.640625 -9.722656 4.796875 -9.953125 C 7.078125 -10.367188 9.582031 -11.019531 12.3125 -11.90625 C 15.050781 -12.789062 17.65625 -13.832031 20.125 -15.03125 C 18.3125 -18.050781 16.925781 -21.394531 15.96875 -25.0625 C 15.019531 -28.726562 14.546875 -32.601562 14.546875 -36.6875 C 14.546875 -42.488281 15.578125 -47.722656 17.640625 -52.390625 C 19.710938 -57.054688 22.628906 -60.707031 26.390625 -63.34375 C 30.148438 -65.988281 34.460938 -67.3125 39.328125 -67.3125 C 43.179688 -67.3125 46.640625 -66.441406 49.703125 -64.703125 C 52.765625 -62.960938 55.15625 -60.523438 56.875 -57.390625 C 58.59375 -54.265625 59.453125 -50.707031 59.453125 -46.71875 C 59.453125 -42.632812 58.488281 -38.503906 56.5625 -34.328125 C 54.632812 -30.148438 51.914062 -26.203125 48.40625 -22.484375 C 44.90625 -18.773438 40.835938 -15.503906 36.203125 -12.671875 C 39.773438 -10.398438 43.789062 -9.265625 48.25 -9.265625 Z M 48.25 -9.265625 "/></g></g></g><g fill="#ffffff" fill-opacity="1"><g transform="translate(407.096145, 815.62491)"><g><path d="M -8.84375 -8.765625 C -9.90625 -9.742188 -10.4375 -10.976562 -10.4375 -12.46875 C -10.4375 -13.90625 -9.9375 -15.117188 -8.9375 -16.109375 C -7.945312 -17.109375 -6.734375 -17.609375 -5.296875 -17.609375 C -3.992188 -17.609375 -2.804688 -17.125 -1.734375 -16.15625 C 0.535156 -14.0625 3.234375 -12.429688 6.359375 -11.265625 C 9.492188 -10.109375 12.640625 -9.53125 15.796875 -9.53125 C 18.910156 -9.53125 21.660156 -10.164062 24.046875 -11.4375 C 26.441406 -12.71875 28.285156 -14.53125 29.578125 -16.875 C 30.878906 -19.21875 31.53125 -21.925781 31.53125 -25 C 31.53125 -28.15625 30.671875 -31.132812 28.953125 -33.9375 C 27.242188 -36.75 24.179688 -40.054688 19.765625 -43.859375 C 14.984375 -47.941406 11.691406 -50.890625 9.890625 -52.703125 C 8.722656 -48.335938 7.003906 -43.140625 4.734375 -37.109375 C 4.359375 -36.128906 3.753906 -35.335938 2.921875 -34.734375 C 2.085938 -34.128906 1.132812 -33.828125 0.0625 -33.828125 C -1.320312 -33.828125 -2.5 -34.316406 -3.46875 -35.296875 C -4.445312 -36.273438 -4.9375 -37.457031 -4.9375 -38.84375 C -4.9375 -39.40625 -4.820312 -39.988281 -4.59375 -40.59375 C -2.59375 -46.019531 -1.023438 -50.804688 0.109375 -54.953125 C 1.242188 -59.109375 1.972656 -63.207031 2.296875 -67.25 C 2.390625 -67.894531 2.484375 -68.335938 2.578125 -68.578125 C 2.941406 -69.640625 3.566406 -70.492188 4.453125 -71.140625 C 5.335938 -71.796875 6.382812 -72.125 7.59375 -72.125 C 8.84375 -72.125 9.953125 -71.71875 10.921875 -70.90625 C 11.898438 -70.09375 12.503906 -69.082031 12.734375 -67.875 C 13.148438 -66.019531 13.671875 -64.535156 14.296875 -63.421875 C 14.929688 -62.304688 16.082031 -60.945312 17.75 -59.34375 C 19.425781 -57.75 22.375 -55.140625 26.59375 -51.515625 C 32.207031 -46.691406 36.195312 -42.25 38.5625 -38.1875 C 40.9375 -34.125 42.125 -29.726562 42.125 -25 C 42.125 -20.769531 41.238281 -16.847656 39.46875 -13.234375 C 44.90625 -15.410156 49.523438 -18.710938 53.328125 -23.140625 C 57.128906 -27.578125 60.425781 -33.414062 63.21875 -40.65625 C 63.582031 -41.582031 64.179688 -42.347656 65.015625 -42.953125 C 65.859375 -43.554688 66.8125 -43.859375 67.875 -43.859375 C 69.269531 -43.859375 70.453125 -43.367188 71.421875 -42.390625 C 72.398438 -41.421875 72.890625 -40.238281 72.890625 -38.84375 C 72.890625 -38.238281 72.773438 -37.632812 72.546875 -37.03125 C 69.109375 -28.03125 64.859375 -20.789062 59.796875 -15.3125 C 54.742188 -9.832031 48.640625 -5.828125 41.484375 -3.296875 C 34.335938 -0.773438 25.800781 0.484375 15.875 0.484375 L 15.796875 0.484375 C 11.390625 0.484375 6.945312 -0.359375 2.46875 -2.046875 C -2.007812 -3.742188 -5.78125 -5.984375 -8.84375 -8.765625 Z M -8.84375 -8.765625 "/></g></g></g><g fill="#ffffff" fill-opacity="1"><g transform="translate(474.971047, 815.62491)"><g><path d="M 30.140625 -102.75 C 31.578125 -102.75 32.796875 -102.25 33.796875 -101.25 C 34.796875 -100.257812 35.296875 -99.046875 35.296875 -97.609375 C 35.296875 -96.160156 34.796875 -94.9375 33.796875 -93.9375 C 32.796875 -92.945312 31.578125 -92.453125 30.140625 -92.453125 L 9.8125 -92.453125 L 9.8125 -30.421875 C 9.8125 -26.429688 10.4375 -22.859375 11.6875 -19.703125 C 12.945312 -16.546875 14.828125 -14.0625 17.328125 -12.25 C 19.835938 -10.4375 22.90625 -9.53125 26.53125 -9.53125 C 27.914062 -9.53125 29.09375 -9.039062 30.0625 -8.0625 C 31.039062 -7.09375 31.53125 -5.914062 31.53125 -4.53125 C 31.53125 -3.132812 31.039062 -1.945312 30.0625 -0.96875 C 29.09375 0 27.914062 0.484375 26.53125 0.484375 C 20.769531 0.484375 15.832031 -0.914062 11.71875 -3.71875 C 7.613281 -6.53125 4.503906 -10.289062 2.390625 -15 C 0.285156 -19.707031 -0.765625 -24.847656 -0.765625 -30.421875 L -0.765625 -33.90625 C -1.972656 -34.09375 -2.984375 -34.648438 -3.796875 -35.578125 C -4.609375 -36.503906 -5.015625 -37.59375 -5.015625 -38.84375 C -5.015625 -39.351562 -4.921875 -39.890625 -4.734375 -40.453125 L -4.03125 -42.53125 C -2.875 -45.925781 -2.039062 -48.898438 -1.53125 -51.453125 C -1.019531 -54.003906 -0.765625 -56.53125 -0.765625 -59.03125 L -0.765625 -92.453125 L -1.734375 -92.453125 C -3.179688 -92.453125 -4.398438 -92.945312 -5.390625 -93.9375 C -6.390625 -94.9375 -6.890625 -96.160156 -6.890625 -97.609375 C -6.890625 -99.046875 -6.390625 -100.257812 -5.390625 -101.25 C -4.398438 -102.25 -3.179688 -102.75 -1.734375 -102.75 L -0.765625 -102.75 L -0.765625 -128.4375 C -0.765625 -129.925781 -0.242188 -131.179688 0.796875 -132.203125 C 1.835938 -133.222656 3.082031 -133.734375 4.53125 -133.734375 C 6.007812 -133.734375 7.257812 -133.222656 8.28125 -132.203125 C 9.300781 -131.179688 9.8125 -129.925781 9.8125 -128.4375 L 9.8125 -102.75 Z M 30.140625 -102.75 "/></g></g></g><g fill="#ffffff" fill-opacity="1"><g transform="translate(501.564093, 815.62491)"><g><path d="M 0 0.484375 C -1.394531 0.484375 -2.578125 0 -3.546875 -0.96875 C -4.523438 -1.945312 -5.015625 -3.132812 -5.015625 -4.53125 C -5.015625 -5.914062 -4.523438 -7.09375 -3.546875 -8.0625 C -2.578125 -9.039062 -1.394531 -9.53125 0 -9.53125 C 3.382812 -9.53125 6.492188 -10.484375 9.328125 -12.390625 C 12.160156 -14.296875 14.445312 -16.875 16.1875 -20.125 C 17.925781 -23.375 18.890625 -26.945312 19.078125 -30.84375 L 19.21875 -61.546875 C 19.21875 -63.023438 19.738281 -64.273438 20.78125 -65.296875 C 21.820312 -66.316406 23.0625 -66.828125 24.5 -66.828125 C 25.988281 -66.828125 27.242188 -66.316406 28.265625 -65.296875 C 29.285156 -64.273438 29.796875 -63.023438 29.796875 -61.546875 L 29.65625 -23.1875 C 29.707031 -18.863281 30.671875 -15.503906 32.546875 -13.109375 C 34.421875 -10.722656 36.984375 -9.53125 40.234375 -9.53125 C 41.628906 -9.53125 42.8125 -9.039062 43.78125 -8.0625 C 44.757812 -7.09375 45.25 -5.914062 45.25 -4.53125 C 45.25 -3.132812 44.757812 -1.945312 43.78125 -0.96875 C 42.8125 0 41.628906 0.484375 40.234375 0.484375 C 36.054688 0.484375 32.398438 -0.488281 29.265625 -2.4375 C 26.140625 -4.382812 23.691406 -7.125 21.921875 -10.65625 C 19.234375 -7.175781 16.007812 -4.445312 12.25 -2.46875 C 8.488281 -0.5 4.40625 0.484375 0 0.484375 Z M 24.5 -92.375 C 21.851562 -92.375 19.71875 -93.175781 18.09375 -94.78125 C 16.46875 -96.382812 15.65625 -98.507812 15.65625 -101.15625 C 15.65625 -103.800781 16.46875 -105.921875 18.09375 -107.515625 C 19.71875 -109.117188 21.851562 -109.921875 24.5 -109.921875 C 27.144531 -109.921875 29.265625 -109.117188 30.859375 -107.515625 C 32.460938 -105.921875 33.265625 -103.800781 33.265625 -101.15625 C 33.265625 -98.507812 32.460938 -96.382812 30.859375 -94.78125 C 29.265625 -93.175781 27.144531 -92.375 24.5 -92.375 Z M 24.5 -92.375 "/></g></g></g><g fill="#ffffff" fill-opacity="1"><g transform="translate(541.801745, 815.62491)"><g><path d="M 50.609375 -46.5 C 50.609375 -49.9375 49.96875 -52.515625 48.6875 -54.234375 C 47.414062 -55.953125 45.617188 -56.8125 43.296875 -56.8125 C 40.703125 -56.757812 38.488281 -55.570312 36.65625 -53.25 C 34.820312 -50.9375 33.09375 -46.878906 31.46875 -41.078125 L 27.78125 -28.125 C 25.039062 -18.28125 21.476562 -11.050781 17.09375 -6.4375 C 12.707031 -1.820312 7.007812 0.484375 0 0.484375 C -1.394531 0.484375 -2.578125 0 -3.546875 -0.96875 C -4.523438 -1.945312 -5.015625 -3.132812 -5.015625 -4.53125 C -5.015625 -5.914062 -4.523438 -7.09375 -3.546875 -8.0625 C -2.578125 -9.039062 -1.394531 -9.53125 0 -9.53125 C 2.925781 -9.53125 5.46875 -10.203125 7.625 -11.546875 C 9.78125 -12.898438 11.703125 -15.128906 13.390625 -18.234375 C 15.085938 -21.347656 16.679688 -25.570312 18.171875 -30.90625 L 21.859375 -43.859375 C 24.035156 -51.648438 26.796875 -57.398438 30.140625 -61.109375 C 33.484375 -64.828125 37.820312 -66.734375 43.15625 -66.828125 L 43.4375 -66.828125 C 47.664062 -66.785156 51.253906 -65.488281 54.203125 -62.9375 C 57.148438 -60.382812 59.085938 -56.925781 60.015625 -52.5625 C 63.078125 -57.195312 66.695312 -60.8125 70.875 -63.40625 C 75.050781 -66.007812 79.503906 -67.3125 84.234375 -67.3125 L 84.3125 -67.3125 C 89.414062 -67.3125 93.648438 -66.023438 97.015625 -63.453125 C 100.378906 -60.878906 102.734375 -57.203125 104.078125 -52.421875 C 107.140625 -57.109375 110.757812 -60.757812 114.9375 -63.375 C 119.113281 -66 123.59375 -67.3125 128.375 -67.3125 L 128.4375 -67.3125 C 135.164062 -67.3125 140.351562 -65.117188 144 -60.734375 C 147.644531 -56.347656 149.46875 -50.304688 149.46875 -42.609375 L 149.46875 -21.234375 C 149.46875 -17.148438 150.242188 -14.175781 151.796875 -12.3125 C 153.347656 -10.457031 155.75 -9.53125 159 -9.53125 C 160.394531 -9.53125 161.578125 -9.039062 162.546875 -8.0625 C 163.523438 -7.09375 164.015625 -5.914062 164.015625 -4.53125 C 164.015625 -3.132812 163.523438 -1.945312 162.546875 -0.96875 C 161.578125 0 160.394531 0.484375 159 0.484375 C 154.96875 0.484375 151.441406 -0.347656 148.421875 -2.015625 C 145.410156 -3.691406 143.066406 -6.148438 141.390625 -9.390625 C 139.722656 -12.640625 138.890625 -16.585938 138.890625 -21.234375 L 138.890625 -42.609375 C 138.890625 -47.710938 138.03125 -51.4375 136.3125 -53.78125 C 134.59375 -56.125 131.96875 -57.296875 128.4375 -57.296875 L 128.375 -57.296875 C 124.382812 -57.296875 120.625 -55.726562 117.09375 -52.59375 C 113.570312 -49.457031 110.726562 -45.207031 108.5625 -39.84375 C 106.40625 -34.488281 105.328125 -28.65625 105.328125 -22.34375 L 105.328125 -5.296875 C 105.328125 -3.847656 104.816406 -2.601562 103.796875 -1.5625 C 102.773438 -0.519531 101.523438 0 100.046875 0 C 98.597656 0 97.351562 -0.519531 96.3125 -1.5625 C 95.269531 -2.601562 94.75 -3.847656 94.75 -5.296875 L 94.75 -42.609375 C 94.75 -47.710938 93.890625 -51.4375 92.171875 -53.78125 C 90.453125 -56.125 87.832031 -57.296875 84.3125 -57.296875 L 84.234375 -57.296875 C 80.242188 -57.296875 76.484375 -55.726562 72.953125 -52.59375 C 69.429688 -49.457031 66.585938 -45.207031 64.421875 -39.84375 C 62.265625 -34.488281 61.1875 -28.65625 61.1875 -22.34375 L 61.1875 -5.296875 C 61.1875 -3.847656 60.675781 -2.601562 59.65625 -1.5625 C 58.632812 -0.519531 57.382812 0 55.90625 0 C 54.46875 0 53.222656 -0.519531 52.171875 -1.5625 C 51.128906 -2.601562 50.609375 -3.847656 50.609375 -5.296875 Z M 50.609375 -46.5 "/></g></g></g><g fill="#ffffff" fill-opacity="1"><g transform="translate(700.803104, 815.62491)"><g><path d="M 0 0.484375 C -1.394531 0.484375 -2.578125 0 -3.546875 -0.96875 C -4.523438 -1.945312 -5.015625 -3.132812 -5.015625 -4.53125 C -5.015625 -5.914062 -4.523438 -7.09375 -3.546875 -8.0625 C -2.578125 -9.039062 -1.394531 -9.53125 0 -9.53125 C 3.476562 -9.53125 6.976562 -10.828125 10.5 -13.421875 C 14.03125 -16.023438 16.84375 -19.414062 18.9375 -23.59375 C 18.195312 -26.84375 17.828125 -30.164062 17.828125 -33.5625 C 17.828125 -40.238281 19.148438 -46.148438 21.796875 -51.296875 C 24.441406 -56.453125 28.1875 -60.457031 33.03125 -63.3125 C 37.882812 -66.164062 43.515625 -67.59375 49.921875 -67.59375 C 53.722656 -67.59375 57.503906 -66.941406 61.265625 -65.640625 C 65.023438 -64.347656 68.410156 -62.265625 71.421875 -59.390625 L 71.703125 -59.109375 C 78.390625 -52.554688 81.734375 -44.039062 81.734375 -33.5625 C 81.734375 -27.007812 80.375 -21.125 77.65625 -15.90625 C 74.9375 -10.6875 71.164062 -6.601562 66.34375 -3.65625 C 61.519531 -0.707031 56.046875 0.765625 49.921875 0.765625 C 44.160156 0.765625 39.050781 -0.378906 34.59375 -2.671875 C 30.144531 -4.972656 26.523438 -8.210938 23.734375 -12.390625 C 20.628906 -8.441406 16.972656 -5.304688 12.765625 -2.984375 C 8.566406 -0.671875 4.3125 0.484375 0 0.484375 Z M 28.40625 -33.5625 C 28.40625 -28.59375 29.265625 -24.285156 30.984375 -20.640625 C 32.703125 -16.992188 35.171875 -14.1875 38.390625 -12.21875 C 41.617188 -10.25 45.460938 -9.265625 49.921875 -9.265625 C 54.046875 -9.265625 57.71875 -10.285156 60.9375 -12.328125 C 64.164062 -14.367188 66.675781 -17.222656 68.46875 -20.890625 C 70.257812 -24.554688 71.15625 -28.78125 71.15625 -33.5625 C 71.15625 -41.03125 69.039062 -47.015625 64.8125 -51.515625 L 64.046875 -52.140625 C 60.285156 -55.765625 55.578125 -57.578125 49.921875 -57.578125 C 45.460938 -57.578125 41.609375 -56.585938 38.359375 -54.609375 C 35.109375 -52.640625 32.632812 -49.851562 30.9375 -46.25 C 29.25 -42.65625 28.40625 -38.425781 28.40625 -33.5625 Z M 28.40625 -33.5625 "/></g></g></g><g fill="#ffffff" fill-opacity="1"><g transform="translate(785.037609, 815.62491)"><g><path d="M 20.890625 -46.5 C 20.890625 -49.9375 20.238281 -52.515625 18.9375 -54.234375 C 17.632812 -55.953125 15.820312 -56.8125 13.5 -56.8125 C 11.96875 -56.8125 10.332031 -56.484375 8.59375 -55.828125 C 6.851562 -55.179688 4.453125 -54 1.390625 -52.28125 C -2.140625 -50.28125 -5.0625 -48.875 -7.375 -48.0625 C -9.695312 -47.257812 -11.992188 -46.859375 -14.265625 -46.859375 C -20.535156 -46.859375 -25.222656 -49.847656 -28.328125 -55.828125 C -28.703125 -56.578125 -28.890625 -57.34375 -28.890625 -58.125 C -28.890625 -59.519531 -28.398438 -60.703125 -27.421875 -61.671875 C -26.453125 -62.648438 -25.269531 -63.140625 -23.875 -63.140625 C -22.90625 -63.140625 -22.023438 -62.894531 -21.234375 -62.40625 C -20.441406 -61.925781 -19.835938 -61.265625 -19.421875 -60.421875 C -18.679688 -59.035156 -17.953125 -58.097656 -17.234375 -57.609375 C -16.515625 -57.117188 -15.523438 -56.875 -14.265625 -56.875 C -13.015625 -56.875 -11.625 -57.164062 -10.09375 -57.75 C -8.5625 -58.332031 -6.359375 -59.429688 -3.484375 -61.046875 C 0.179688 -63.140625 3.289062 -64.625 5.84375 -65.5 C 8.394531 -66.382812 10.945312 -66.828125 13.5 -66.828125 C 17.769531 -66.828125 21.398438 -65.550781 24.390625 -63 C 27.390625 -60.445312 29.351562 -56.96875 30.28125 -52.5625 C 33.34375 -57.195312 36.960938 -60.8125 41.140625 -63.40625 C 45.316406 -66.007812 49.773438 -67.3125 54.515625 -67.3125 L 54.578125 -67.3125 C 61.304688 -67.3125 66.492188 -65.117188 70.140625 -60.734375 C 73.785156 -56.347656 75.609375 -50.304688 75.609375 -42.609375 L 75.609375 -21.234375 C 75.609375 -17.148438 76.382812 -14.175781 77.9375 -12.3125 C 79.488281 -10.457031 81.890625 -9.53125 85.140625 -9.53125 C 86.535156 -9.53125 87.71875 -9.039062 88.6875 -8.0625 C 89.664062 -7.09375 90.15625 -5.914062 90.15625 -4.53125 C 90.15625 -3.132812 89.664062 -1.945312 88.6875 -0.96875 C 87.71875 0 86.535156 0.484375 85.140625 0.484375 C 81.097656 0.484375 77.566406 -0.347656 74.546875 -2.015625 C 71.535156 -3.691406 69.191406 -6.148438 67.515625 -9.390625 C 65.847656 -12.640625 65.015625 -16.585938 65.015625 -21.234375 L 65.015625 -42.609375 C 65.015625 -47.710938 64.15625 -51.4375 62.4375 -53.78125 C 60.726562 -56.125 58.109375 -57.296875 54.578125 -57.296875 L 54.515625 -57.296875 C 50.515625 -57.296875 46.75 -55.726562 43.21875 -52.59375 C 39.695312 -49.457031 36.859375 -45.207031 34.703125 -39.84375 C 32.546875 -34.488281 31.46875 -28.65625 31.46875 -22.34375 L 31.46875 -5.296875 C 31.46875 -3.847656 30.957031 -2.601562 29.9375 -1.5625 C 28.914062 -0.519531 27.660156 0 26.171875 0 C 24.734375 0 23.492188 -0.519531 22.453125 -1.5625 C 21.410156 -2.601562 20.890625 -3.847656 20.890625 -5.296875 Z M 20.890625 -46.5 "/></g></g></g><g fill="#ffffff" fill-opacity="1"><g transform="translate(870.177113, 815.62491)"><g><path d="M 29.65625 -20.125 C 29.65625 -16.5 30.242188 -13.828125 31.421875 -12.109375 C 32.609375 -10.390625 34.25 -9.53125 36.34375 -9.53125 C 38.476562 -9.53125 40.273438 -10.078125 41.734375 -11.171875 C 43.191406 -12.265625 44.851562 -14.273438 46.71875 -17.203125 C 47.175781 -17.984375 47.800781 -18.601562 48.59375 -19.0625 C 49.382812 -19.53125 50.242188 -19.765625 51.171875 -19.765625 C 52.609375 -19.765625 53.835938 -19.253906 54.859375 -18.234375 C 55.878906 -17.210938 56.390625 -15.984375 56.390625 -14.546875 C 56.390625 -13.671875 56.132812 -12.789062 55.625 -11.90625 C 53.019531 -7.726562 50.207031 -4.617188 47.1875 -2.578125 C 44.175781 -0.535156 40.5625 0.484375 36.34375 0.484375 C 32.8125 0.484375 29.722656 -0.382812 27.078125 -2.125 C 24.429688 -3.863281 22.4375 -6.332031 21.09375 -9.53125 C 18.40625 -6.375 15.25 -3.914062 11.625 -2.15625 C 8.007812 -0.394531 4.132812 0.484375 0 0.484375 C -1.394531 0.484375 -2.578125 0 -3.546875 -0.96875 C -4.523438 -1.945312 -5.015625 -3.132812 -5.015625 -4.53125 C -5.015625 -5.914062 -4.523438 -7.09375 -3.546875 -8.0625 C -2.578125 -9.039062 -1.394531 -9.53125 0 -9.53125 C 3.382812 -9.53125 6.492188 -10.484375 9.328125 -12.390625 C 12.160156 -14.296875 14.445312 -16.875 16.1875 -20.125 C 17.925781 -23.375 18.890625 -26.945312 19.078125 -30.84375 L 19.21875 -61.546875 C 19.21875 -63.023438 19.738281 -64.273438 20.78125 -65.296875 C 21.820312 -66.316406 23.0625 -66.828125 24.5 -66.828125 C 25.988281 -66.828125 27.242188 -66.316406 28.265625 -65.296875 C 29.285156 -64.273438 29.796875 -63.023438 29.796875 -61.546875 L 29.65625 -21.578125 Z M 24.5 -92.375 C 21.851562 -92.375 19.71875 -93.175781 18.09375 -94.78125 C 16.46875 -96.382812 15.65625 -98.507812 15.65625 -101.15625 C 15.65625 -103.800781 16.46875 -105.921875 18.09375 -107.515625 C 19.71875 -109.117188 21.851562 -109.921875 24.5 -109.921875 C 27.144531 -109.921875 29.265625 -109.117188 30.859375 -107.515625 C 32.460938 -105.921875 33.265625 -103.800781 33.265625 -101.15625 C 33.265625 -98.507812 32.460938 -96.382812 30.859375 -94.78125 C 29.265625 -93.175781 27.144531 -92.375 24.5 -92.375 Z M 24.5 -92.375 "/></g></g></g><g fill="#ef4c20" fill-opacity="1"><g transform="translate(929.361282, 815.62491)"><g><path d="M 16.296875 -126.765625 C 16.296875 -128.816406 16.96875 -130.476562 18.3125 -131.75 C 19.65625 -133.03125 21.375 -133.671875 23.46875 -133.671875 L 47.484375 -133.671875 C 57.222656 -133.671875 65.734375 -132.046875 73.015625 -128.796875 C 80.304688 -125.546875 85.910156 -120.898438 89.828125 -114.859375 C 93.753906 -108.828125 95.71875 -101.753906 95.71875 -93.640625 C 95.71875 -84.441406 93.675781 -76.421875 89.59375 -69.578125 C 85.507812 -62.734375 79.695312 -57.46875 72.15625 -53.78125 C 64.613281 -50.09375 55.757812 -48.25 45.59375 -48.25 L 26.65625 -48.25 L 26.59375 -4.59375 C 26.59375 -3.15625 26.082031 -1.910156 25.0625 -0.859375 C 24.039062 0.179688 22.785156 0.703125 21.296875 0.703125 C 19.859375 0.703125 18.617188 0.179688 17.578125 -0.859375 C 16.535156 -1.910156 16.015625 -3.15625 16.015625 -4.59375 Z M 45.59375 -58.265625 C 53.90625 -58.265625 61.019531 -59.664062 66.9375 -62.46875 C 72.851562 -65.28125 77.363281 -69.34375 80.46875 -74.65625 C 83.582031 -79.976562 85.140625 -86.304688 85.140625 -93.640625 C 85.140625 -99.859375 83.664062 -105.21875 80.71875 -109.71875 C 77.769531 -114.21875 73.476562 -117.660156 67.84375 -120.046875 C 62.207031 -122.441406 55.421875 -123.640625 47.484375 -123.640625 L 26.875 -123.640625 L 26.734375 -58.265625 Z M 45.59375 -58.265625 "/></g></g></g><g fill="#ef4c20" fill-opacity="1"><g transform="translate(1032.74, 815.62491)"><g><path d="M 42.25 -53.75 C 42.113281 -53.976562 41.976562 -54.207031 41.84375 -54.4375 L 26.734375 -54.4375 L 26.59375 -4.59375 C 26.59375 -3.15625 26.082031 -1.910156 25.0625 -0.859375 C 24.039062 0.179688 22.785156 0.703125 21.296875 0.703125 C 19.859375 0.703125 18.617188 0.179688 17.578125 -0.859375 C 16.535156 -1.910156 16.015625 -3.15625 16.015625 -4.59375 L 16.15625 -48.25 L 16.296875 -126.765625 C 16.296875 -128.816406 16.976562 -130.476562 18.34375 -131.75 C 19.707031 -133.03125 21.414062 -133.671875 23.46875 -133.671875 L 49.078125 -133.671875 C 57.429688 -133.671875 64.859375 -132.101562 71.359375 -128.96875 C 77.859375 -125.832031 82.914062 -121.429688 86.53125 -115.765625 C 90.15625 -110.109375 91.96875 -103.613281 91.96875 -96.28125 C 91.96875 -88.4375 90.410156 -81.507812 87.296875 -75.5 C 84.191406 -69.488281 79.828125 -64.707031 74.203125 -61.15625 C 68.585938 -57.601562 62.070312 -55.457031 54.65625 -54.71875 L 90.984375 -7.859375 C 91.679688 -6.929688 92.03125 -5.910156 92.03125 -4.796875 C 92.03125 -3.359375 91.519531 -2.128906 90.5 -1.109375 C 89.476562 -0.0859375 88.25 0.421875 86.8125 0.421875 C 85.09375 0.421875 83.703125 -0.296875 82.640625 -1.734375 Z M 49.078125 -64.46875 C 55.617188 -64.46875 61.316406 -65.71875 66.171875 -68.21875 C 71.023438 -70.726562 74.769531 -74.375 77.40625 -79.15625 C 80.050781 -83.9375 81.375 -89.644531 81.375 -96.28125 C 81.375 -101.757812 80.050781 -106.5625 77.40625 -110.6875 C 74.769531 -114.820312 71.015625 -118.015625 66.140625 -120.265625 C 61.265625 -122.515625 55.578125 -123.640625 49.078125 -123.640625 L 26.875 -123.640625 L 26.734375 -64.46875 Z M 49.078125 -64.46875 "/></g></g></g><g fill="#ef4c20" fill-opacity="1"><g transform="translate(1134.865568, 815.62491)"><g><path d="M 63.5625 -8.5 C 72.238281 -8.5 79.707031 -10.816406 85.96875 -15.453125 C 92.238281 -20.097656 97.046875 -26.828125 100.390625 -35.640625 C 103.734375 -44.460938 105.40625 -55.019531 105.40625 -67.3125 C 105.40625 -79.425781 103.722656 -89.820312 100.359375 -98.5 C 96.992188 -107.1875 92.164062 -113.800781 85.875 -118.34375 C 79.582031 -122.894531 72.144531 -125.171875 63.5625 -125.171875 C 54.976562 -125.171875 47.539062 -122.894531 41.25 -118.34375 C 34.957031 -113.800781 30.128906 -107.1875 26.765625 -98.5 C 23.398438 -89.820312 21.71875 -79.425781 21.71875 -67.3125 C 21.71875 -55.019531 23.390625 -44.460938 26.734375 -35.640625 C 30.078125 -26.828125 34.890625 -20.097656 41.171875 -15.453125 C 47.460938 -10.816406 54.925781 -8.5 63.5625 -8.5 Z M 63.5625 1.53125 C 52.789062 1.53125 43.457031 -1.265625 35.5625 -6.859375 C 27.675781 -12.453125 21.632812 -20.429688 17.4375 -30.796875 C 13.238281 -41.171875 11.140625 -53.34375 11.140625 -67.3125 C 11.140625 -81.050781 13.238281 -93.023438 17.4375 -103.234375 C 21.632812 -113.453125 27.675781 -121.332031 35.5625 -126.875 C 43.457031 -132.425781 52.789062 -135.203125 63.5625 -135.203125 C 74.332031 -135.203125 83.660156 -132.425781 91.546875 -126.875 C 99.429688 -121.332031 105.472656 -113.453125 109.671875 -103.234375 C 113.878906 -93.023438 115.984375 -81.050781 115.984375 -67.3125 C 115.984375 -53.300781 113.878906 -41.117188 109.671875 -30.765625 C 105.472656 -20.421875 99.441406 -12.453125 91.578125 -6.859375 C 83.710938 -1.265625 74.375 1.53125 63.5625 1.53125 Z M 63.5625 1.53125 "/></g></g></g></svg>